<svg id="visual" viewBox="0 0 1920 1080" width="1920" height="1080" xmlns="http://www.w3.org/2000/svg" xmlns:xlink="http://www.w3.org/1999/xlink" version="1.1"><path d="M0 249L26.7 259.8C53.3 270.7 106.7 292.3 160 290.7C213.3 289 266.7 264 320 262.2C373.3 260.3 426.7 281.7 480 292.3C533.3 303 586.7 303 640 299.5C693.3 296 746.7 289 800 287.3C853.3 285.7 906.7 289.3 960 291.2C1013.3 293 1066.7 293 1120 282.2C1173.3 271.3 1226.7 249.7 1280 242.3C1333.3 235 1386.7 242 1440 249.2C1493.3 256.3 1546.7 263.7 1600 265.5C1653.3 267.3 1706.7 263.7 1760 258.3C1813.3 253 1866.7 246 1893.3 242.5L1920 239L1920 0L1893.3 0C1866.7 0 1813.3 0 1760 0C1706.7 0 1653.3 0 1600 0C1546.7 0 1493.3 0 1440 0C1386.7 0 1333.3 0 1280 0C1226.7 0 1173.3 0 1120 0C1066.7 0 1013.3 0 960 0C906.7 0 853.3 0 800 0C746.7 0 693.3 0 640 0C586.7 0 533.3 0 480 0C426.7 0 373.3 0 320 0C266.7 0 213.3 0 160 0C106.7 0 53.3 0 26.7 0L0 0Z" fill="#6198ff"></path><path d="M0 379L26.7 386.2C53.3 393.3 106.7 407.7 160 407.7C213.3 407.7 266.7 393.3 320 393.3C373.3 393.3 426.7 407.7 480 416.7C533.3 425.7 586.7 429.3 640 425.8C693.3 422.3 746.7 411.7 800 408C853.3 404.3 906.7 407.7 960 409.3C1013.3 411 1066.7 411 1120 400.3C1173.3 389.7 1226.7 368.3 1280 364.8C1333.3 361.3 1386.7 375.7 1440 382.8C1493.3 390 1546.7 390 1600 386.3C1653.3 382.7 1706.7 375.3 1760 373.5C1813.3 371.7 1866.7 375.3 1893.3 377.2L1920 379L1920 237L1893.3 240.5C1866.7 244 1813.3 251 1760 256.3C1706.7 261.7 1653.3 265.3 1600 263.5C1546.7 261.7 1493.3 254.3 1440 247.2C1386.7 240 1333.3 233 1280 240.3C1226.7 247.7 1173.3 269.3 1120 280.2C1066.7 291 1013.3 291 960 289.2C906.7 287.3 853.3 283.7 800 285.3C746.7 287 693.3 294 640 297.5C586.7 301 533.3 301 480 290.3C426.7 279.7 373.3 258.3 320 260.2C266.7 262 213.3 287 160 288.7C106.7 290.3 53.3 268.7 26.7 257.8L0 247Z" fill="#4385ff"></path><path d="M0 519L26.7 533.5C53.3 548 106.7 577 160 577C213.3 577 266.7 548 320 549.8C373.3 551.7 426.7 584.3 480 600.7C533.3 617 586.7 617 640 617C693.3 617 746.7 617 800 617C853.3 617 906.7 617 960 613.3C1013.3 609.7 1066.7 602.3 1120 591.5C1173.3 580.7 1226.7 566.3 1280 564.5C1333.3 562.7 1386.7 573.3 1440 573.3C1493.3 573.3 1546.7 562.7 1600 553.7C1653.3 544.7 1706.7 537.3 1760 533.7C1813.3 530 1866.7 530 1893.3 530L1920 530L1920 377L1893.3 375.2C1866.7 373.3 1813.3 369.7 1760 371.5C1706.7 373.3 1653.3 380.7 1600 384.3C1546.7 388 1493.3 388 1440 380.8C1386.7 373.7 1333.3 359.3 1280 362.8C1226.7 366.3 1173.3 387.7 1120 398.3C1066.7 409 1013.3 409 960 407.3C906.7 405.7 853.3 402.3 800 406C746.7 409.7 693.3 420.3 640 423.8C586.7 427.3 533.3 423.7 480 414.7C426.7 405.7 373.3 391.3 320 391.3C266.7 391.3 213.3 405.7 160 405.7C106.7 405.7 53.3 391.3 26.7 384.2L0 377Z" fill="#2071ff"></path><path d="M0 638L26.7 650.7C53.3 663.3 106.7 688.7 160 690.5C213.3 692.3 266.7 670.7 320 674.2C373.3 677.7 426.7 706.3 480 715.3C533.3 724.3 586.7 713.7 640 708.3C693.3 703 746.7 703 800 710.2C853.3 717.3 906.7 731.7 960 733.5C1013.3 735.3 1066.7 724.7 1120 710.3C1173.3 696 1226.7 678 1280 676.2C1333.3 674.3 1386.7 688.7 1440 690.5C1493.3 692.3 1546.7 681.7 1600 674.5C1653.3 667.3 1706.7 663.7 1760 660C1813.3 656.3 1866.7 652.7 1893.3 650.8L1920 649L1920 528L1893.3 528C1866.7 528 1813.3 528 1760 531.7C1706.7 535.3 1653.3 542.7 1600 551.7C1546.7 560.7 1493.3 571.3 1440 571.3C1386.7 571.3 1333.3 560.7 1280 562.5C1226.7 564.3 1173.3 578.7 1120 589.5C1066.7 600.3 1013.3 607.7 960 611.3C906.7 615 853.3 615 800 615C746.7 615 693.3 615 640 615C586.7 615 533.3 615 480 598.7C426.7 582.3 373.3 549.7 320 547.8C266.7 546 213.3 575 160 575C106.7 575 53.3 546 26.7 531.5L0 517Z" fill="#0061f1"></path><path d="M0 962L26.7 963.8C53.3 965.7 106.7 969.3 160 974.8C213.3 980.3 266.7 987.7 320 989.5C373.3 991.3 426.7 987.7 480 982.2C533.3 976.7 586.7 969.3 640 965.7C693.3 962 746.7 962 800 965.7C853.3 969.3 906.7 976.7 960 978.5C1013.3 980.3 1066.7 976.7 1120 978.5C1173.3 980.3 1226.7 987.7 1280 987.7C1333.3 987.7 1386.7 980.3 1440 978.5C1493.3 976.7 1546.7 980.3 1600 982.2C1653.3 984 1706.7 984 1760 980.3C1813.3 976.7 1866.7 969.3 1893.3 965.7L1920 962L1920 647L1893.3 648.8C1866.7 650.7 1813.3 654.3 1760 658C1706.7 661.7 1653.3 665.3 1600 672.5C1546.7 679.7 1493.3 690.3 1440 688.5C1386.7 686.7 1333.3 672.3 1280 674.2C1226.7 676 1173.3 694 1120 708.3C1066.7 722.7 1013.3 733.3 960 731.5C906.7 729.7 853.3 715.3 800 708.2C746.7 701 693.3 701 640 706.3C586.7 711.7 533.3 722.3 480 713.3C426.7 704.3 373.3 675.7 320 672.2C266.7 668.7 213.3 690.3 160 688.5C106.7 686.7 53.3 661.3 26.7 648.7L0 636Z" fill="#0056d6"></path><path d="M0 1081L26.7 1081C53.3 1081 106.7 1081 160 1081C213.3 1081 266.7 1081 320 1081C373.3 1081 426.7 1081 480 1081C533.3 1081 586.7 1081 640 1081C693.3 1081 746.7 1081 800 1081C853.3 1081 906.7 1081 960 1081C1013.3 1081 1066.7 1081 1120 1081C1173.3 1081 1226.7 1081 1280 1081C1333.3 1081 1386.7 1081 1440 1081C1493.3 1081 1546.7 1081 1600 1081C1653.3 1081 1706.7 1081 1760 1081C1813.3 1081 1866.7 1081 1893.3 1081L1920 1081L1920 960L1893.3 963.7C1866.7 967.3 1813.3 974.7 1760 978.3C1706.7 982 1653.3 982 1600 980.2C1546.7 978.3 1493.3 974.7 1440 976.5C1386.7 978.3 1333.3 985.7 1280 985.7C1226.7 985.7 1173.3 978.3 1120 976.5C1066.7 974.7 1013.3 978.3 960 976.5C906.7 974.7 853.3 967.3 800 963.7C746.7 960 693.3 960 640 963.7C586.7 967.3 533.3 974.7 480 980.2C426.7 985.7 373.3 989.3 320 987.5C266.7 985.7 213.3 978.3 160 972.8C106.7 967.3 53.3 963.7 26.7 961.8L0 960Z" fill="#004cbb"></path></svg>