<svg id="visual" viewBox="0 0 7680 4320" width="7680" height="4320" xmlns="http://www.w3.org/2000/svg" xmlns:xlink="http://www.w3.org/1999/xlink" version="1.1"><path d="M0 390L116.3 390C232.7 390 465.3 390 698 390C930.7 390 1163.3 390 1396.2 411.5C1629 433 1862 476 2094.8 504.8C2327.7 533.7 2560.3 548.3 2793 534C3025.7 519.7 3258.3 476.3 3491 483.5C3723.7 490.7 3956.3 548.3 4189 519.5C4421.7 490.7 4654.3 375.3 4887 317.7C5119.7 260 5352.3 260 5585.2 317.7C5818 375.3 6051 490.7 6283.8 569.8C6516.7 649 6749.3 692 6982 634.3C7214.7 576.7 7447.3 418.3 7563.7 339.2L7680 260L7680 0L7563.7 0C7447.3 0 7214.7 0 6982 0C6749.3 0 6516.7 0 6283.8 0C6051 0 5818 0 5585.2 0C5352.3 0 5119.7 0 4887 0C4654.3 0 4421.7 0 4189 0C3956.3 0 3723.7 0 3491 0C3258.3 0 3025.7 0 2793 0C2560.3 0 2327.7 0 2094.8 0C1862 0 1629 0 1396.2 0C1163.3 0 930.7 0 698 0C465.3 0 232.7 0 116.3 0L0 0Z" fill="#6198ff"></path><path d="M0 1297L116.3 1268.2C232.7 1239.3 465.3 1181.7 698 1102.5C930.7 1023.3 1163.3 922.7 1396.2 879.5C1629 836.3 1862 850.7 2094.8 893.8C2327.7 937 2560.3 1009 2793 1088.2C3025.7 1167.3 3258.3 1253.7 3491 1311.3C3723.7 1369 3956.3 1398 4189 1369.2C4421.7 1340.3 4654.3 1253.7 4887 1217.7C5119.7 1181.7 5352.3 1196.3 5585.2 1196.3C5818 1196.3 6051 1181.7 6283.8 1188.8C6516.7 1196 6749.3 1225 6982 1145.8C7214.7 1066.7 7447.3 879.3 7563.7 785.7L7680 692L7680 258L7563.7 337.2C7447.3 416.3 7214.7 574.7 6982 632.3C6749.3 690 6516.7 647 6283.8 567.8C6051 488.7 5818 373.3 5585.2 315.7C5352.3 258 5119.7 258 4887 315.7C4654.3 373.3 4421.7 488.7 4189 517.5C3956.3 546.3 3723.7 488.7 3491 481.5C3258.3 474.3 3025.7 517.7 2793 532C2560.3 546.3 2327.7 531.7 2094.8 502.8C1862 474 1629 431 1396.2 409.5C1163.3 388 930.7 388 698 388C465.3 388 232.7 388 116.3 388L0 388Z" fill="#3c80ff"></path><path d="M0 1945L116.3 1981C232.7 2017 465.3 2089 698 2089C930.7 2089 1163.3 2017 1396.2 1887.3C1629 1757.7 1862 1570.3 2094.8 1577.5C2327.7 1584.7 2560.3 1786.3 2793 1836.8C3025.7 1887.3 3258.3 1786.7 3491 1858.7C3723.7 1930.7 3956.3 2175.3 4189 2240.2C4421.7 2305 4654.3 2190 4887 2110.8C5119.7 2031.7 5352.3 1988.3 5585.2 1973.8C5818 1959.3 6051 1973.7 6283.8 1988C6516.7 2002.3 6749.3 2016.7 6982 1966.3C7214.7 1916 7447.3 1801 7563.7 1743.5L7680 1686L7680 690L7563.7 783.7C7447.3 877.3 7214.7 1064.7 6982 1143.8C6749.3 1223 6516.7 1194 6283.8 1186.8C6051 1179.7 5818 1194.3 5585.2 1194.3C5352.3 1194.3 5119.7 1179.7 4887 1215.7C4654.3 1251.7 4421.7 1338.3 4189 1367.2C3956.3 1396 3723.7 1367 3491 1309.3C3258.3 1251.7 3025.7 1165.3 2793 1086.2C2560.3 1007 2327.7 935 2094.8 891.8C1862 848.7 1629 834.3 1396.2 877.5C1163.3 920.7 930.7 1021.3 698 1100.5C465.3 1179.7 232.7 1237.3 116.3 1266.2L0 1295Z" fill="#0066ff"></path><path d="M0 3111L116.3 3039C232.7 2967 465.3 2823 698 2808.7C930.7 2794.3 1163.3 2909.7 1396.2 2981.7C1629 3053.7 1862 3082.3 2094.8 3082.3C2327.7 3082.3 2560.3 3053.7 2793 3075.3C3025.7 3097 3258.3 3169 3491 3190.7C3723.7 3212.3 3956.3 3183.7 4189 3176.5C4421.7 3169.3 4654.3 3183.7 4887 3162C5119.7 3140.3 5352.3 3082.7 5585.2 3032.2C5818 2981.7 6051 2938.3 6283.8 3010.3C6516.7 3082.3 6749.3 3269.7 6982 3313C7214.7 3356.3 7447.3 3255.7 7563.7 3205.3L7680 3155L7680 1684L7563.7 1741.5C7447.3 1799 7214.7 1914 6982 1964.3C6749.3 2014.7 6516.7 2000.3 6283.8 1986C6051 1971.7 5818 1957.3 5585.2 1971.8C5352.3 1986.3 5119.7 2029.7 4887 2108.8C4654.3 2188 4421.7 2303 4189 2238.2C3956.3 2173.3 3723.7 1928.7 3491 1856.7C3258.3 1784.7 3025.7 1885.3 2793 1834.8C2560.3 1784.3 2327.7 1582.7 2094.8 1575.5C1862 1568.3 1629 1755.7 1396.2 1885.3C1163.3 2015 930.7 2087 698 2087C465.3 2087 232.7 2015 116.3 1979L0 1943Z" fill="#0059dd"></path><path d="M0 4321L116.3 4321C232.7 4321 465.3 4321 698 4321C930.7 4321 1163.3 4321 1396.2 4321C1629 4321 1862 4321 2094.8 4321C2327.7 4321 2560.3 4321 2793 4321C3025.7 4321 3258.3 4321 3491 4321C3723.7 4321 3956.3 4321 4189 4321C4421.7 4321 4654.3 4321 4887 4321C5119.7 4321 5352.3 4321 5585.2 4321C5818 4321 6051 4321 6283.8 4321C6516.7 4321 6749.3 4321 6982 4321C7214.7 4321 7447.3 4321 7563.7 4321L7680 4321L7680 3153L7563.7 3203.3C7447.3 3253.7 7214.7 3354.3 6982 3311C6749.3 3267.7 6516.7 3080.3 6283.8 3008.3C6051 2936.3 5818 2979.7 5585.2 3030.2C5352.3 3080.7 5119.7 3138.3 4887 3160C4654.3 3181.7 4421.7 3167.3 4189 3174.5C3956.3 3181.7 3723.7 3210.3 3491 3188.7C3258.3 3167 3025.7 3095 2793 3073.3C2560.3 3051.7 2327.7 3080.3 2094.8 3080.3C1862 3080.3 1629 3051.7 1396.2 2979.7C1163.3 2907.7 930.7 2792.3 698 2806.7C465.3 2821 232.7 2965 116.3 3037L0 3109Z" fill="#004cbb"></path></svg>