<svg id="visual" viewBox="0 0 1920 1080" width="1920" height="1080" xmlns="http://www.w3.org/2000/svg" xmlns:xlink="http://www.w3.org/1999/xlink" version="1.1"><rect x="0" y="0" width="1920" height="1080" fill="#002233"></rect><path d="M0 525L35.5 534.8C71 544.7 142 564.3 213.2 592C284.3 619.7 355.7 655.3 426.8 648.5C498 641.7 569 592.3 640 605.3C711 618.3 782 693.7 853.2 698.5C924.3 703.3 995.7 637.7 1066.8 635.5C1138 633.3 1209 694.7 1280 697.8C1351 701 1422 646 1493.2 601C1564.3 556 1635.7 521 1706.8 505.8C1778 490.7 1849 495.3 1884.5 497.7L1920 500L1920 1081L1884.5 1081C1849 1081 1778 1081 1706.8 1081C1635.7 1081 1564.3 1081 1493.2 1081C1422 1081 1351 1081 1280 1081C1209 1081 1138 1081 1066.8 1081C995.7 1081 924.3 1081 853.2 1081C782 1081 711 1081 640 1081C569 1081 498 1081 426.8 1081C355.7 1081 284.3 1081 213.2 1081C142 1081 71 1081 35.5 1081L0 1081Z" fill="#0066FF" stroke-linecap="round" stroke-linejoin="miter"></path></svg>