<svg id="visual" viewBox="0 0 1920 1080" width="1920" height="1080" xmlns="http://www.w3.org/2000/svg" xmlns:xlink="http://www.w3.org/1999/xlink" version="1.1"><rect x="0" y="0" width="1920" height="1080" fill="#002233"></rect><path d="M0 741L45.7 760.2C91.3 779.3 182.7 817.7 274.2 821.7C365.7 825.7 457.3 795.3 548.8 781.7C640.3 768 731.7 771 823 796.2C914.3 821.3 1005.7 868.7 1097 879.5C1188.3 890.3 1279.7 864.7 1371.2 828.8C1462.7 793 1554.3 747 1645.8 728.3C1737.3 709.7 1828.7 718.3 1874.3 722.7L1920 727L1920 1081L1874.3 1081C1828.7 1081 1737.3 1081 1645.8 1081C1554.3 1081 1462.7 1081 1371.2 1081C1279.7 1081 1188.3 1081 1097 1081C1005.7 1081 914.3 1081 823 1081C731.7 1081 640.3 1081 548.8 1081C457.3 1081 365.7 1081 274.2 1081C182.7 1081 91.3 1081 45.7 1081L0 1081Z" fill="#0066FF" stroke-linecap="round" stroke-linejoin="miter"></path></svg>